<svg xmlns="http://www.w3.org/2000/svg" width="345" height="367" viewBox="0 0 345 367" version="1.1"><path d="M 172.250 0.662 C 171.563 0.940, 171 2.210, 171 3.486 C 171 5.326, 167.425 22.560, 163.479 39.750 C 163.106 41.372, 162.200 42.028, 160.231 42.100 C 158.729 42.155, 156.375 42.589, 155 43.064 C 153.302 43.652, 154.211 43.746, 157.833 43.359 C 162.991 42.808, 163.156 42.867, 162.833 45.138 C 162.594 46.822, 161.650 47.668, 159.500 48.125 C 157.182 48.618, 157.012 48.790, 158.750 48.882 C 159.988 48.947, 161 49.128, 161 49.284 C 161 51.039, 151.474 84.023, 146.426 99.750 L 139.925 120 98.213 120.079 C 75.271 120.122, 56.950 120.314, 57.500 120.504 C 59.329 121.137, 139.842 121.717, 140.678 121.103 C 141.461 120.529, 142.267 118.176, 149.278 96 C 150.930 90.775, 152.639 85.600, 153.075 84.500 C 153.511 83.400, 154.329 80.925, 154.893 79 C 155.457 77.075, 157.017 71.900, 158.359 67.500 C 159.702 63.100, 161.103 57.748, 161.473 55.606 C 161.842 53.465, 162.787 51.070, 163.572 50.285 C 164.358 49.500, 165.001 47.877, 165.003 46.679 C 165.005 45.480, 165.937 40, 167.075 34.500 C 168.212 29, 169.467 22.925, 169.863 21 C 170.518 17.822, 170.643 17.716, 171.225 19.851 C 171.582 21.161, 172.336 21.911, 172.928 21.544 C 173.513 21.183, 174.419 21.925, 174.942 23.194 C 175.864 25.433, 179.918 42.471, 180.487 46.500 C 181.286 52.159, 185.354 66.187, 192.668 88.500 C 194.650 94.550, 196.374 100.175, 196.498 101 C 196.784 102.912, 197.766 105.703, 199.488 109.500 C 200.237 111.150, 201.366 114.181, 201.997 116.236 C 202.629 118.291, 203.676 120.304, 204.323 120.710 C 206.174 121.870, 284.850 122.190, 286.812 121.045 C 287.940 120.388, 274.662 120.051, 246.817 120.030 L 205.135 120 198.668 100.250 C 195.111 89.387, 191.281 77.350, 190.156 73.500 C 183.186 49.641, 183.068 49.047, 185.250 48.937 C 185.938 48.902, 185.455 48.454, 184.178 47.942 C 182.548 47.288, 181.942 46.339, 182.147 44.755 C 182.307 43.515, 182.161 42.050, 181.822 41.500 C 180.990 40.150, 173.673 3.958, 173.786 1.750 C 173.835 0.788, 173.791 0.036, 173.688 0.079 C 173.585 0.122, 172.938 0.385, 172.250 0.662 M 170.451 26.351 C 169.874 26.983, 169.682 28.625, 170.024 30 C 170.600 32.316, 170.687 32.243, 171.204 29 C 171.856 24.918, 171.833 24.837, 170.451 26.351 M 197 26.500 C 197 27.325, 197.675 28, 198.500 28 C 199.325 28, 200 27.325, 200 26.500 C 200 25.675, 199.325 25, 198.500 25 C 197.675 25, 197 25.675, 197 26.500 M 145.467 44.472 C 130.711 47.685, 106.375 57.959, 99 64.090 C 97.270 65.528, 97.886 65.347, 101 63.503 C 114.039 55.780, 136.304 47.103, 147.250 45.478 C 149.863 45.090, 152 44.374, 152 43.886 C 152 43.399, 151.887 43.036, 151.750 43.079 C 151.613 43.123, 148.785 43.750, 145.467 44.472 M 187.750 43.662 C 188.438 43.940, 189.563 43.940, 190.250 43.662 C 190.938 43.385, 190.375 43.158, 189 43.158 C 187.625 43.158, 187.063 43.385, 187.750 43.662 M 198 45.612 C 218.672 50.098, 241.583 61.151, 259.058 75.067 L 261.616 77.104 271.558 72.973 C 277.026 70.702, 283.750 67.789, 286.500 66.501 C 301.673 59.392, 306.972 57, 307.547 57 C 307.899 57, 306.408 59.138, 304.235 61.750 C 294.939 72.924, 279.070 95.307, 279.698 96.360 C 280.072 96.987, 282.049 99.975, 284.090 103 C 286.132 106.025, 289.079 111.200, 290.638 114.500 C 292.197 117.800, 293.555 120.651, 293.656 120.837 C 293.757 121.022, 301.638 121.138, 311.170 121.094 C 326.726 121.023, 328.301 121.168, 326.559 122.508 C 325.491 123.328, 323.841 124, 322.892 124 C 321.943 124, 321.017 124.337, 320.833 124.750 C 320.650 125.162, 317.125 127.129, 313 129.120 C 284.018 143.109, 268.221 151.040, 266.500 152.467 C 263.735 154.760, 263.858 154.705, 288 142.779 C 299.825 136.938, 314.933 129.747, 321.573 126.798 C 328.213 123.850, 333.501 121.002, 333.324 120.469 C 333.126 119.873, 325.579 119.625, 313.736 119.824 L 294.470 120.147 292.153 115.324 C 290.879 112.671, 287.806 107.221, 285.325 103.214 C 282.843 99.207, 281.027 95.371, 281.289 94.689 C 282.015 92.797, 303.596 64.263, 309.227 57.750 C 311.961 54.587, 313.711 52, 313.115 52 C 312.519 52, 309.216 53.364, 305.774 55.031 C 302.333 56.698, 298.533 58.144, 297.330 58.243 C 296.128 58.343, 295.304 58.683, 295.500 59 C 295.696 59.317, 294.426 60.173, 292.678 60.902 C 290.930 61.632, 287.600 63.112, 285.277 64.190 C 282.955 65.269, 280.523 65.823, 279.873 65.421 C 279.131 64.963, 278.957 65.121, 279.405 65.845 C 279.827 66.530, 279.483 67, 278.559 67 C 276.229 67, 275.626 67.231, 274.179 68.679 C 273.452 69.405, 271.764 70, 270.429 70 C 269.093 70, 268 70.450, 268 71 C 268 71.550, 267.100 72, 266 72 C 264.900 72, 264 72.354, 264 72.787 C 264 74.857, 259.129 73.531, 254.647 70.241 C 242.947 61.652, 231.723 55.298, 221.300 51.362 C 212.224 47.935, 197.417 43.976, 194.139 44.100 C 192.688 44.156, 194.425 44.836, 198 45.612 M 151.250 49.689 C 152.213 49.941, 153.787 49.941, 154.750 49.689 C 155.713 49.438, 154.925 49.232, 153 49.232 C 151.075 49.232, 150.287 49.438, 151.250 49.689 M 139.500 52 C 136.952 53.095, 139.581 53.095, 143 52 C 145.010 51.356, 145.108 51.194, 143.500 51.170 C 142.400 51.154, 140.600 51.527, 139.500 52 M 199.750 51.662 C 200.438 51.940, 201.563 51.940, 202.250 51.662 C 202.938 51.385, 202.375 51.158, 201 51.158 C 199.625 51.158, 199.063 51.385, 199.750 51.662 M 33 53.111 C 33 53.722, 34.724 56.310, 36.832 58.861 C 38.940 61.413, 45.745 70.250, 51.956 78.500 C 67.196 98.745, 70.199 101.663, 57.312 83.704 C 53.840 78.866, 50.998 74.591, 50.995 74.204 C 50.993 73.817, 49.739 72.150, 48.210 70.500 C 46.681 68.850, 44.098 65.700, 42.470 63.500 C 40.843 61.300, 39.059 59.169, 38.506 58.765 C 37.953 58.361, 38.400 58.034, 39.500 58.038 C 40.600 58.041, 42.625 58.924, 44 60 C 45.375 61.076, 47.026 61.966, 47.669 61.978 C 48.312 61.990, 50.112 62.647, 51.669 63.439 C 53.226 64.230, 56.075 65.533, 58 66.333 C 59.925 67.134, 63.525 68.692, 66 69.795 C 76.402 74.432, 82.603 76.632, 83.980 76.173 C 84.786 75.905, 86.808 74.355, 88.473 72.731 L 91.500 69.777 88.222 72.097 C 85.246 74.204, 84.648 74.297, 81.722 73.107 C 79.950 72.387, 77.487 71.565, 76.250 71.282 C 75.013 70.999, 74 70.369, 74 69.883 C 74 69.398, 72.907 69, 71.571 69 C 70.236 69, 68.538 68.438, 67.798 67.750 C 67.058 67.063, 65.788 66.358, 64.976 66.185 C 64.164 66.011, 60.686 64.549, 57.247 62.935 C 53.808 61.321, 50.519 60, 49.938 60 C 49.357 60, 49.167 59.539, 49.515 58.975 C 49.864 58.412, 49.778 58.047, 49.324 58.166 C 47.510 58.640, 41.341 56.609, 37.796 54.371 C 33.548 51.690, 33 51.546, 33 53.111 M 209.412 54.068 C 212.664 55.135, 215.501 55.833, 215.716 55.617 C 216.259 55.075, 207.007 51.985, 205.072 52.063 C 204.207 52.098, 206.160 53, 209.412 54.068 M 225.724 60.395 C 237.544 66.092, 250.760 74.714, 257.627 81.209 C 260.595 84.015, 263.259 86.075, 263.547 85.786 C 264.200 85.133, 254.329 76.581, 247.123 71.556 C 240.867 67.194, 222.645 57.487, 219 56.574 C 217.625 56.230, 220.651 57.949, 225.724 60.395 M 93.981 67.523 C 92.924 68.796, 92.986 68.943, 94.359 68.416 C 95.261 68.069, 96 67.384, 96 66.893 C 96 65.607, 95.421 65.788, 93.981 67.523 M 82.437 84.250 L 79.500 87.500 82.750 84.563 C 84.537 82.948, 86 81.485, 86 81.313 C 86 80.540, 85.175 81.221, 82.437 84.250 M 270 92.678 C 270 93.235, 271.012 94.547, 272.250 95.595 L 274.500 97.500 272.511 95 C 271.417 93.625, 270.404 92.313, 270.261 92.083 C 270.117 91.854, 270 92.122, 270 92.678 M 277 102 C 278.175 103.650, 279.361 105, 279.636 105 C 279.911 105, 279.175 103.650, 278 102 C 276.825 100.350, 275.639 99, 275.364 99 C 275.089 99, 275.825 100.350, 277 102 M 168.884 105.750 C 167.760 108.362, 165.916 113.200, 164.787 116.500 C 163.658 119.800, 162.395 122.950, 161.980 123.500 C 161.565 124.050, 159.992 127.650, 158.485 131.500 C 156.978 135.350, 154.636 140.965, 153.282 143.978 C 151.927 146.990, 150.016 151.490, 149.035 153.978 C 148.055 156.465, 144.452 165.250, 141.030 173.500 C 137.609 181.750, 134.599 189.400, 134.342 190.500 C 133.803 192.805, 157.159 138.711, 166.211 116.687 L 172.300 101.875 178.827 116.927 C 182.417 125.206, 185.511 131.822, 185.704 131.630 C 185.896 131.437, 183.622 125.479, 180.651 118.390 C 177.679 111.300, 174.937 104.487, 174.557 103.250 C 173.439 99.612, 171.079 100.652, 168.884 105.750 M 284.550 114.099 C 285.972 116.904, 287.336 118.998, 287.582 118.752 C 288.058 118.275, 283.127 109, 282.398 109 C 282.160 109, 283.129 111.295, 284.550 114.099 M 13.226 121.177 C 13.441 121.824, 17.099 123.839, 21.354 125.655 C 25.610 127.471, 28.846 128.559, 28.546 128.074 C 28.246 127.588, 25.525 126.165, 22.500 124.912 C 19.475 123.658, 17 122.275, 17 121.840 C 17 121.404, 24.762 120.913, 34.250 120.748 L 51.500 120.450 32.167 120.225 C 17.703 120.057, 12.932 120.296, 13.226 121.177 M 31 130 C 31.825 130.533, 32.950 130.969, 33.500 130.969 C 34.050 130.969, 33.825 130.533, 33 130 C 32.175 129.467, 31.050 129.031, 30.500 129.031 C 29.950 129.031, 30.175 129.467, 31 130 M 186.562 134.500 C 188.321 140.267, 191.378 147.363, 191.694 146.416 C 191.893 145.820, 190.683 142.445, 189.004 138.916 C 187.325 135.387, 186.226 133.400, 186.562 134.500 M 44 136 C 44.825 136.533, 45.950 136.969, 46.500 136.969 C 47.050 136.969, 46.825 136.533, 46 136 C 45.175 135.467, 44.050 135.031, 43.500 135.031 C 42.950 135.031, 43.175 135.467, 44 136 M 53.441 140.445 C 54.509 141.300, 55.821 142, 56.358 142 C 57.628 142, 57.061 141.538, 54 140.080 C 51.643 138.958, 51.611 138.978, 53.441 140.445 M 64 146 C 64.825 146.533, 65.950 146.969, 66.500 146.969 C 67.050 146.969, 66.825 146.533, 66 146 C 65.175 145.467, 64.050 145.031, 63.500 145.031 C 62.950 145.031, 63.175 145.467, 64 146 M 192.035 148.550 C 192.055 149.072, 192.749 150.625, 193.577 152 L 195.083 154.500 194.429 152 C 193.747 149.392, 191.971 146.833, 192.035 148.550 M 254.815 158.309 C 243.864 164.280, 243.825 165.069, 254.750 159.605 C 263.067 155.446, 265.461 153.884, 263.250 154.059 C 262.837 154.092, 259.042 156.005, 254.815 158.309 M 195.071 155.500 C 195.071 156.050, 195.714 157.625, 196.500 159 C 197.286 160.375, 197.929 161.050, 197.929 160.500 C 197.929 159.950, 197.286 158.375, 196.500 157 C 195.714 155.625, 195.071 154.950, 195.071 155.500 M 241.441 165.555 C 239.611 167.022, 239.643 167.042, 242 165.920 C 245.061 164.462, 245.628 164, 244.358 164 C 243.821 164, 242.509 164.700, 241.441 165.555 M 231.500 170.297 C 224.787 173.924, 224.465 175.017, 227.901 182.500 C 228.912 184.700, 230.326 188.075, 231.045 190 C 231.764 191.925, 233.678 196.425, 235.297 200 C 236.917 203.575, 239.717 209.875, 241.519 214 C 249.234 231.658, 254.424 243.173, 259.212 253.257 C 262.021 259.173, 264.072 264.261, 263.770 264.564 C 263.333 265, 257.231 262.625, 252.750 260.275 C 252.338 260.059, 252 260.157, 252 260.494 C 252 261.155, 264.719 267.321, 266.714 267.627 C 267.382 267.729, 266.113 264.202, 263.894 259.788 C 253.091 238.303, 226.617 176.440, 227.377 174.459 C 227.663 173.715, 230.395 171.963, 233.448 170.567 C 236.502 169.170, 239 167.796, 239 167.514 C 239 166.512, 237.428 167.095, 231.500 170.297 M 299.310 175.500 C 299.315 178.800, 299.502 180.029, 299.725 178.232 C 299.947 176.435, 299.943 173.735, 299.715 172.232 C 299.486 170.729, 299.304 172.200, 299.310 175.500 M 334.469 171.456 C 333.099 174.642, 330.679 177, 328.778 177 C 326.576 177, 326.490 178.332, 328.580 180.067 C 329.459 180.796, 329.976 182.347, 329.744 183.559 C 329.360 185.570, 329.659 185.709, 333.589 185.345 C 335.934 185.128, 338.141 185.419, 338.495 185.992 C 339.493 187.606, 341 186.140, 341 183.556 C 341 182.178, 342.019 180.562, 343.500 179.592 C 346.990 177.305, 346.617 176.330, 342.437 176.818 C 339.464 177.165, 338.782 176.883, 338.320 175.117 C 338.016 173.953, 337.402 173, 336.957 173 C 336.511 173, 335.958 172.213, 335.728 171.250 C 335.349 169.663, 335.231 169.682, 334.469 171.456 M 9 171.989 C 9 173.943, 5.510 177, 3.278 177 C 0.608 177, 0.431 177.714, 2.529 180.032 C 3.371 180.962, 4.158 183.049, 4.279 184.670 C 4.497 187.584, 4.532 187.600, 7.227 186.059 C 9.441 184.793, 10.326 184.731, 11.931 185.730 C 14.183 187.131, 15.664 185.799, 15.173 182.813 C 15.020 181.885, 15.819 180.632, 16.948 180.028 C 19.662 178.575, 19.560 177.004, 16.750 176.985 C 14.222 176.967, 11.850 175.727, 11.787 174.388 C 11.660 171.699, 9 169.408, 9 171.989 M 202.184 173.504 C 202.811 174.882, 203.459 175.874, 203.623 175.711 C 204.231 175.102, 202.735 171, 201.905 171 C 201.431 171, 201.556 172.127, 202.184 173.504 M 117.212 176.434 C 115.464 180.270, 115.729 182.042, 117.534 178.583 C 118.370 176.978, 118.913 175.240, 118.740 174.719 C 118.566 174.199, 117.879 174.970, 117.212 176.434 M 113.655 185.250 C 112.901 187.037, 110.391 192.933, 108.077 198.352 C 105.763 203.770, 104.070 208.403, 104.314 208.647 C 104.679 209.013, 111.821 192.848, 115.094 184.250 C 116.427 180.748, 115.193 181.605, 113.655 185.250 M 298.195 192.500 C 298.215 194.150, 298.439 194.704, 298.693 193.731 C 298.947 192.758, 298.930 191.408, 298.656 190.731 C 298.382 190.054, 298.175 190.850, 298.195 192.500 M 41.158 193 C 41.158 194.375, 41.385 194.938, 41.662 194.250 C 41.940 193.563, 41.940 192.438, 41.662 191.750 C 41.385 191.063, 41.158 191.625, 41.158 193 M 130.667 198.167 C 129.762 200.470, 129.185 202.519, 129.386 202.719 C 129.586 202.919, 130.500 201.208, 131.417 198.917 C 132.334 196.625, 132.910 194.577, 132.698 194.364 C 132.485 194.152, 131.572 195.863, 130.667 198.167 M 156.500 208.326 C 148.800 212.336, 137.213 218.422, 130.750 221.849 C 124.287 225.277, 119 227.901, 119 227.679 C 119 227.458, 120.396 224.198, 122.102 220.436 C 125.901 212.057, 127.346 208.321, 126.435 209.232 C 124.552 211.115, 118.098 227.498, 118.917 228.317 C 119.472 228.872, 125.090 226.466, 133.167 222.212 C 159.715 208.233, 170.323 203, 172.117 203 C 174.325 203, 184.788 207.733, 187.298 209.868 C 188.287 210.709, 189.723 211.489, 190.489 211.601 C 191.254 211.714, 195.845 214.039, 200.691 216.768 C 209.568 221.768, 223.577 229, 224.387 229 C 225.227 229, 224.307 224.373, 223.083 222.445 C 221.875 220.541, 221.863 220.542, 222.520 222.500 C 222.890 223.600, 223.445 225.124, 223.755 225.886 C 224.065 226.649, 223.909 227.081, 223.409 226.847 C 219.503 225.016, 204.195 217.063, 198.500 213.907 C 184.741 206.280, 175.520 201.750, 173.030 201.396 C 171.341 201.155, 165.845 203.459, 156.500 208.326 M 102.361 211.607 C 101.984 212.648, 99.718 217.957, 97.326 223.405 C 94.934 228.853, 93.181 233.514, 93.430 233.763 C 93.679 234.012, 94.534 232.705, 95.329 230.858 C 96.124 229.011, 98.411 223.723, 100.411 219.107 C 102.411 214.490, 103.822 210.489, 103.547 210.214 C 103.272 209.939, 102.738 210.566, 102.361 211.607 M 139 235.500 C 137.625 236.286, 136.976 236.945, 137.559 236.965 C 138.141 236.984, 139.491 236.339, 140.559 235.532 C 143.028 233.664, 142.239 233.648, 139 235.500 M 90.179 239.328 C 86.898 246.745, 86.770 248.993, 90.021 242.103 C 91.681 238.584, 92.843 235.510, 92.603 235.270 C 92.363 235.030, 91.273 236.856, 90.179 239.328 M 19.469 239.050 C 18.519 240.588, 19.820 241.580, 21.104 240.296 C 21.822 239.578, 21.839 239.019, 21.156 238.597 C 20.596 238.251, 19.837 238.455, 19.469 239.050 M 127 242 C 126.175 242.533, 125.950 242.969, 126.500 242.969 C 127.050 242.969, 128.175 242.533, 129 242 C 129.825 241.467, 130.050 241.031, 129.500 241.031 C 128.950 241.031, 127.825 241.467, 127 242 M 120.441 245.555 C 118.611 247.022, 118.643 247.042, 121 245.920 C 124.061 244.462, 124.628 244, 123.358 244 C 122.821 244, 121.509 244.700, 120.441 245.555 M 112.750 249.572 C 109.012 251.600, 109.239 252.445, 113 250.500 C 114.650 249.647, 116 248.735, 116 248.474 C 116 247.831, 115.893 247.867, 112.750 249.572 M 85 251 C 84.411 252.100, 84.155 253, 84.430 253 C 84.705 253, 85.411 252.100, 86 251 C 86.589 249.900, 86.845 249, 86.570 249 C 86.295 249, 85.589 249.900, 85 251 M 241 254.466 C 241 254.741, 243.250 256.106, 246 257.500 C 248.750 258.894, 251 259.809, 251 259.534 C 251 259.259, 248.750 257.894, 246 256.500 C 243.250 255.106, 241 254.191, 241 254.466 M 90 261.500 C 88.625 262.286, 87.976 262.945, 88.559 262.965 C 89.141 262.984, 90.491 262.339, 91.559 261.532 C 94.028 259.664, 93.239 259.648, 90 261.500 M 65 267.296 C 61.649 272.190, 46.770 291.671, 37.909 302.768 C 35.595 305.665, 33.904 308.237, 34.151 308.484 C 34.398 308.731, 38.628 306.664, 43.550 303.890 C 48.473 301.116, 55.559 297.252, 59.297 295.303 C 63.035 293.354, 65.881 291.547, 65.621 291.287 C 65.170 290.836, 51.394 297.984, 44 302.506 C 37.223 306.650, 36.900 305.939, 42.522 299.247 C 53.699 285.943, 69.805 263.455, 68.834 262.509 C 68.650 262.331, 66.925 264.485, 65 267.296 M 78.651 264.466 C 77.889 266.453, 78.350 267.409, 79.803 266.854 C 80.314 266.659, 80.421 265.633, 80.041 264.573 C 79.384 262.742, 79.315 262.737, 78.651 264.466 M 84.250 264.031 C 83.013 264.529, 82 265.175, 82 265.468 C 82 266.438, 83.592 266.020, 85.559 264.532 C 87.771 262.858, 87.462 262.740, 84.250 264.031 M 73 266 C 72.411 267.100, 72.155 268, 72.430 268 C 72.705 268, 73.411 267.100, 74 266 C 74.589 264.900, 74.845 264, 74.570 264 C 74.295 264, 73.589 264.900, 73 266 M 279.484 267.500 C 280.501 269.150, 283.846 273.823, 286.917 277.884 C 289.988 281.945, 293.175 286.238, 294 287.424 C 294.825 288.609, 298.087 292.761, 301.250 296.650 C 304.413 300.539, 307 304.007, 307 304.357 C 307 304.706, 303.133 302.936, 298.407 300.422 C 293.681 297.909, 289.664 296.002, 289.481 296.185 C 288.907 296.759, 310.461 308.799, 311.237 308.337 C 311.642 308.096, 309.127 304.434, 305.648 300.199 C 302.168 295.965, 294.899 286.650, 289.493 279.500 C 279.118 265.777, 276.441 262.567, 279.484 267.500 M 275 271 C 275.589 272.100, 276.295 273, 276.570 273 C 276.845 273, 276.589 272.100, 276 271 C 275.411 269.900, 274.705 269, 274.430 269 C 274.155 269, 274.411 269.900, 275 271 M 68.667 272.667 C 68.300 273.033, 68 273.798, 68 274.367 C 68 274.993, 68.466 274.934, 69.183 274.217 C 69.834 273.566, 70.134 272.801, 69.850 272.517 C 69.566 272.233, 69.033 272.300, 68.667 272.667 M 64.651 279.952 C 63.212 282.125, 62.460 284.167, 62.980 284.488 C 64.095 285.177, 73.521 280.585, 74.610 278.821 C 75.024 278.152, 72.813 279.044, 69.696 280.802 C 63.265 284.432, 62.028 284.759, 64.217 282.250 C 65.919 280.298, 68.293 276, 67.668 276 C 67.447 276, 66.089 277.778, 64.651 279.952 M 279.444 278.687 C 280.292 280.439, 281.484 282.181, 282.093 282.557 C 283.434 283.386, 281.988 280.537, 279.525 277.500 C 278.020 275.644, 278.014 275.729, 279.444 278.687 M 273.083 280.319 C 274.673 281.538, 281 284.840, 281 284.452 C 281 283.783, 274.706 280.008, 273.583 280.004 C 273.079 280.002, 272.854 280.144, 273.083 280.319 M 79 284 C 78.175 284.533, 77.950 284.969, 78.500 284.969 C 79.050 284.969, 80.175 284.533, 81 284 C 81.825 283.467, 82.050 283.031, 81.500 283.031 C 80.950 283.031, 79.825 283.467, 79 284 M 70.656 288.116 C 68.541 289.232, 67.014 290.348, 67.262 290.596 C 67.510 290.844, 69.690 289.917, 72.107 288.535 C 77.336 285.546, 76.167 285.209, 70.656 288.116 M 276.083 289.365 C 276.313 289.565, 277.625 290.265, 279 290.920 C 281.357 292.042, 281.389 292.022, 279.559 290.555 C 277.966 289.279, 274.711 288.164, 276.083 289.365 M 282 292.568 C 282 292.777, 283.462 293.705, 285.250 294.629 C 287.998 296.049, 288.302 296.070, 287.217 294.763 C 286.053 293.359, 282 291.654, 282 292.568 M 226.441 295.555 C 224.611 297.022, 224.643 297.042, 227 295.920 C 230.061 294.462, 230.628 294, 229.358 294 C 228.821 294, 227.509 294.700, 226.441 295.555 M 133 302 C 133.825 302.533, 135.175 302.945, 136 302.914 C 136.989 302.878, 136.819 302.567, 135.500 302 C 132.751 300.819, 131.172 300.819, 133 302 M 139.500 304 C 140.600 304.473, 142.400 304.846, 143.500 304.830 C 145.108 304.806, 145.010 304.644, 143 304 C 139.581 302.905, 136.952 302.905, 139.500 304 M 198.500 304.598 L 193.500 305.959 198.382 305.398 C 203.770 304.780, 209.234 303.079, 205.500 303.182 C 204.400 303.213, 201.250 303.850, 198.500 304.598 M 147.269 305.693 C 148.242 305.947, 149.592 305.930, 150.269 305.656 C 150.946 305.382, 150.150 305.175, 148.500 305.195 C 146.850 305.215, 146.296 305.439, 147.269 305.693 M 161.189 307.677 C 162.117 307.923, 163.077 308.883, 163.323 309.811 C 163.638 311.008, 163.802 310.844, 163.884 309.250 C 163.973 307.518, 163.482 307.027, 161.750 307.116 C 160.156 307.198, 159.992 307.362, 161.189 307.677 M 181 308.500 C 181 309.325, 181.177 310, 181.393 310 C 181.609 310, 182.045 309.325, 182.362 308.500 C 182.678 307.675, 182.501 307, 181.969 307 C 181.436 307, 181 307.675, 181 308.500 M 155.250 312.144 C 157.863 312.734, 160.003 313.505, 160.007 313.858 C 160.011 314.211, 161.608 321.025, 163.556 329 C 167.854 346.595, 167.576 345.352, 169.813 356.946 C 171.090 363.562, 171.860 365.808, 172.384 364.446 C 173.724 360.958, 185.002 315.688, 184.933 314.072 C 184.834 311.732, 182.713 318.997, 178.027 337.734 C 175.721 346.955, 173.632 355.138, 173.384 355.917 C 172.613 358.346, 170.995 355.681, 170.044 350.416 C 167.987 339.031, 161.364 313.998, 160.058 312.671 C 159.609 312.215, 157.275 311.669, 154.871 311.457 L 150.500 311.072 155.250 312.144 M 164.091 313.671 C 163.993 316.002, 170.472 342.805, 171.344 343.677 C 172.770 345.103, 174.087 341.887, 176.985 329.905 C 178.726 322.707, 179.946 316.613, 179.697 316.364 C 179.215 315.882, 175.816 327.943, 173.933 336.819 C 173.313 339.744, 172.578 341.911, 172.300 341.633 C 172.022 341.356, 170.082 334.462, 167.989 326.314 C 165.895 318.166, 164.141 312.477, 164.091 313.671 M 98.151 318.750 C 96.317 321.021, 96.197 321.556, 97.465 321.823 C 98.309 322.001, 99 323.014, 99 324.073 C 99 325.133, 99.675 326, 100.500 326 C 101.325 326, 102 325.550, 102 325 C 102 322.868, 102.188 322.474, 103.578 321.697 C 104.797 321.014, 104.749 320.530, 103.256 318.478 C 101.032 315.420, 100.833 315.430, 98.151 318.750" stroke="none" fill="#f9ed5d" fill-rule="evenodd"/><path d="M 169.726 21.006 C 169.424 22.928, 168.239 29, 167.092 34.500 C 165.945 40, 165.005 45.480, 165.003 46.679 C 165.001 47.877, 164.358 49.500, 163.572 50.285 C 162.787 51.070, 161.842 53.465, 161.473 55.606 C 161.103 57.748, 159.702 63.100, 158.359 67.500 C 157.017 71.900, 155.457 77.075, 154.893 79 C 154.329 80.925, 153.511 83.400, 153.075 84.500 C 152.639 85.600, 150.930 90.775, 149.278 96 C 147.626 101.225, 145.200 108.875, 143.887 113 C 142.574 117.125, 141.050 120.856, 140.500 121.292 C 139.950 121.727, 133.875 121.856, 127 121.578 C 120.125 121.300, 101.590 121.056, 85.812 121.036 C 57.752 121.001, 57.128 120.956, 57.275 119 C 57.358 117.900, 57.677 117, 57.984 117 C 58.291 117, 59.657 114.863, 61.021 112.250 C 62.384 109.638, 63.838 107.350, 64.250 107.167 C 64.663 106.983, 65 106.467, 65 106.019 C 65 105.180, 67.754 101.741, 74.236 94.487 C 76.291 92.187, 77.641 89.940, 77.236 89.493 C 76.831 89.045, 77.012 88.972, 77.637 89.329 C 78.787 89.986, 81.389 87.722, 80.502 86.835 C 80.237 86.571, 81.436 85.037, 83.165 83.427 C 84.894 81.817, 85.976 81.175, 85.570 82 C 85.163 82.825, 86.312 81.925, 88.124 80 C 89.936 78.075, 91.811 76.500, 92.290 76.500 C 92.769 76.500, 93.800 75.626, 94.581 74.559 C 95.361 73.491, 96.007 73.041, 96.015 73.559 C 96.024 74.076, 96.457 73.825, 96.979 73 C 97.500 72.175, 98.281 71.461, 98.714 71.414 C 100.930 71.170, 102.911 69.655, 102.334 68.645 C 101.974 68.015, 102.043 67.829, 102.487 68.231 C 103.413 69.069, 111 65.081, 111 63.757 C 111 63.276, 111.450 63.160, 112 63.500 C 112.550 63.840, 113 63.615, 113 63 C 113 62.385, 113.450 62.160, 114 62.500 C 114.550 62.840, 115 62.615, 115 62 C 115 61.385, 115.414 61.138, 115.919 61.450 C 116.425 61.763, 117.496 61.361, 118.300 60.557 C 119.104 59.753, 120.040 59.374, 120.381 59.714 C 120.721 60.055, 121 59.808, 121 59.167 C 121 58.525, 122.088 58, 123.417 58 C 124.746 58, 125.990 57.530, 126.181 56.956 C 126.373 56.381, 127.535 55.835, 128.765 55.743 C 129.994 55.650, 131 55.172, 131 54.680 C 131 54.188, 131.675 54.045, 132.500 54.362 C 133.325 54.678, 134 54.586, 134 54.158 C 134 53.066, 143.696 50.694, 144.962 51.476 C 145.533 51.829, 146 51.611, 146 50.992 C 146 50.320, 146.808 50.122, 148 50.500 C 149.227 50.889, 150 50.680, 150 49.958 C 150 49.202, 151.251 48.927, 153.500 49.190 C 155.425 49.415, 157 49.269, 157 48.866 C 157 48.463, 158.238 47.990, 159.750 47.816 C 161.719 47.590, 162.591 46.861, 162.820 45.250 C 163.216 42.462, 162.915 42.457, 149.522 45.042 C 143.704 46.164, 138.437 46.770, 137.817 46.387 C 137.198 46.004, 136.962 46.130, 137.293 46.665 C 138.064 47.913, 124.412 52.355, 122.749 51.398 C 122.062 51.003, 121.844 51.058, 122.265 51.521 C 122.986 52.315, 102.880 63.038, 100.294 63.239 C 99.631 63.291, 99.320 63.708, 99.603 64.167 C 100.073 64.927, 98.615 65.413, 96.750 65.118 C 96.338 65.053, 96 65.675, 96 66.500 C 96 67.325, 95.550 68.056, 95 68.125 C 94.450 68.194, 93.662 68.312, 93.250 68.389 C 92.838 68.465, 90.925 70.144, 89 72.119 C 87.075 74.094, 84.828 75.925, 84.007 76.186 C 82.605 76.633, 76.394 74.429, 66 69.795 C 63.525 68.692, 59.925 67.134, 58 66.333 C 56.075 65.533, 53.226 64.230, 51.669 63.439 C 50.112 62.647, 48.312 61.990, 47.669 61.978 C 47.026 61.966, 45.375 61.076, 44 60 C 42.625 58.924, 40.600 58.041, 39.500 58.038 C 38.400 58.034, 37.953 58.361, 38.506 58.765 C 39.059 59.169, 40.843 61.300, 42.470 63.500 C 44.098 65.700, 46.681 68.850, 48.210 70.500 C 49.739 72.150, 50.993 73.809, 50.995 74.186 C 50.998 74.563, 54.093 79.189, 57.874 84.465 L 64.748 94.058 58.450 104.545 C 54.986 110.313, 51.857 116.374, 51.497 118.016 L 50.841 121 33.921 121 C 24.614 121, 17 121.389, 17 121.864 C 17 122.339, 19.028 123.503, 21.506 124.449 C 23.985 125.396, 25.790 126.531, 25.517 126.972 C 25.245 127.413, 25.579 127.742, 26.261 127.704 C 28.311 127.587, 34 130.125, 34 131.157 C 34 131.685, 34.450 131.840, 35 131.500 C 35.550 131.160, 36 131.385, 36 132 C 36 132.615, 36.450 132.840, 37 132.500 C 37.550 132.160, 38 132.434, 38 133.108 C 38 133.782, 38.262 134.072, 38.582 133.752 C 39.373 132.961, 46.181 135.879, 47.465 137.561 C 48.034 138.305, 49.625 139.118, 51 139.368 C 54.743 140.047, 57 141.100, 57 142.166 C 57 142.690, 57.450 142.840, 58 142.500 C 58.550 142.160, 59 142.385, 59 143 C 59 143.615, 59.450 143.840, 60 143.500 C 60.550 143.160, 61 143.359, 61 143.941 C 61 144.523, 61.868 145, 62.929 145 C 63.989 145, 65.548 145.691, 66.393 146.536 C 67.237 147.380, 68.155 147.943, 68.432 147.786 C 68.709 147.629, 69.895 148.322, 71.069 149.327 C 72.242 150.332, 74.168 151.340, 75.348 151.567 C 76.528 151.794, 77.646 152.437, 77.832 152.996 C 78.018 153.555, 78.582 153.758, 79.085 153.447 C 79.588 153.136, 80 153.385, 80 154 C 80 154.615, 80.450 154.840, 81 154.500 C 81.550 154.160, 82 154.385, 82 155 C 82 155.615, 82.392 155.876, 82.871 155.580 C 83.350 155.284, 84.758 155.923, 86 157 C 87.242 158.077, 88.650 158.716, 89.129 158.420 C 89.608 158.124, 90 158.385, 90 159 C 90 159.615, 90.450 159.840, 91 159.500 C 91.550 159.160, 92 159.385, 92 160 C 92 160.615, 92.392 160.876, 92.871 160.580 C 93.350 160.284, 94.769 160.932, 96.024 162.021 C 98.165 163.878, 99.467 164.400, 101.250 164.118 C 101.662 164.053, 102 164.477, 102 165.059 C 102 165.641, 102.399 165.871, 102.887 165.570 C 103.374 165.269, 104.325 165.687, 105 166.500 C 105.675 167.313, 106.626 167.731, 107.113 167.430 C 107.601 167.129, 108 167.385, 108 168 C 108 168.615, 108.414 168.862, 108.919 168.550 C 109.425 168.237, 110.448 168.548, 111.193 169.241 C 111.938 169.933, 113.212 170.646, 114.024 170.825 C 114.836 171.004, 115.651 171.569, 115.835 172.081 C 116.020 172.593, 116.550 172.778, 117.013 172.492 C 118.580 171.523, 119.048 175.679, 117.671 178.333 C 116.919 179.783, 116.066 180.733, 115.777 180.443 C 115.487 180.154, 115.235 180.948, 115.216 182.208 C 115.172 185.212, 105.065 209, 103.833 209 C 103.310 209, 103.142 209.421, 103.460 209.936 C 104.104 210.977, 95.341 231.922, 93.602 233.500 C 92.996 234.050, 92.500 234.950, 92.500 235.500 C 92.500 237.514, 87.739 248, 86.825 248 C 86.306 248, 86.115 248.377, 86.399 248.837 C 86.684 249.297, 86.158 250.757, 85.231 252.080 C 84.304 253.404, 83.448 255.156, 83.327 255.975 C 83.207 256.794, 82.632 257.623, 82.048 257.817 C 81.465 258.012, 81.242 258.582, 81.553 259.085 C 81.864 259.588, 81.615 260, 81 260 C 80.385 260, 80.136 260.412, 80.447 260.915 C 80.758 261.418, 80.614 261.980, 80.128 262.165 C 79.618 262.358, 79.626 263.519, 80.147 264.906 C 80.973 267.104, 81.159 267.165, 82.295 265.611 C 82.979 264.676, 84.542 263.835, 85.769 263.742 C 86.996 263.650, 88 263.250, 88 262.855 C 88 262.176, 91.009 260.888, 93.730 260.403 C 94.407 260.282, 95.680 259.463, 96.561 258.582 C 97.441 257.702, 98.528 257.208, 98.976 257.485 C 99.424 257.762, 100.066 257.269, 100.404 256.391 C 100.741 255.512, 101.655 255.037, 102.435 255.337 C 103.215 255.636, 104.392 255.233, 105.049 254.441 C 105.707 253.648, 106.658 253, 107.163 253 C 107.668 253, 109.305 252.095, 110.802 250.989 C 112.298 249.882, 114.498 248.789, 115.690 248.560 C 116.882 248.330, 118.790 247.210, 119.929 246.071 C 121.068 244.932, 122.707 244, 123.571 244 C 124.436 244, 125.818 243.325, 126.643 242.500 C 127.468 241.675, 129.011 241, 130.071 241 C 131.132 241, 132 240.523, 132 239.941 C 132 239.359, 132.403 239.131, 132.895 239.435 C 133.388 239.740, 134.059 239.288, 134.388 238.431 C 134.717 237.574, 135.439 237.153, 135.993 237.496 C 136.547 237.838, 137 237.672, 137 237.126 C 137 236.187, 139.725 234.930, 142.982 234.366 C 143.797 234.224, 144.623 233.632, 144.817 233.048 C 145.012 232.465, 145.582 232.242, 146.085 232.553 C 146.588 232.864, 147 232.641, 147 232.059 C 147 231.477, 147.675 231, 148.500 231 C 149.325 231, 150 230.550, 150 230 C 150 229.450, 150.900 229, 152 229 C 153.100 229, 154 228.523, 154 227.941 C 154 227.359, 154.450 227.160, 155 227.500 C 155.550 227.840, 156 227.615, 156 227 C 156 226.385, 156.450 226.160, 157 226.500 C 157.550 226.840, 158 226.630, 158 226.034 C 158 224.968, 162.783 222.523, 164.250 222.839 C 164.663 222.927, 165 222.523, 165 221.941 C 165 221.359, 165.450 221.160, 166 221.500 C 166.550 221.840, 167 221.615, 167 221 C 167 220.385, 167.450 220.160, 168 220.500 C 168.550 220.840, 169 220.641, 169 220.059 C 169 218.403, 175.604 218.818, 177.055 220.566 C 178.774 222.637, 183.581 225.086, 184.373 224.293 C 184.718 223.949, 185 224.192, 185 224.833 C 185 225.475, 185.527 226, 186.171 226 C 186.815 226, 188.053 226.640, 188.921 227.421 C 189.790 228.203, 191.175 228.990, 192 229.171 C 192.825 229.352, 193.758 229.848, 194.073 230.273 C 194.389 230.699, 195.634 231.237, 196.841 231.469 C 198.047 231.702, 199.697 232.554, 200.507 233.364 C 201.317 234.174, 203.334 235.134, 204.990 235.498 C 206.645 235.861, 208 236.573, 208 237.079 C 208 237.586, 208.643 238, 209.429 238 C 210.214 238, 211.480 238.623, 212.241 239.384 C 214.027 241.169, 221.612 245.040, 224.363 245.570 C 225.535 245.796, 226.645 246.435, 226.830 246.990 C 227.015 247.546, 227.767 248, 228.500 248 C 229.233 248, 229.992 248.475, 230.185 249.054 C 230.510 250.031, 232.639 250.738, 235.809 250.923 C 236.529 250.966, 236.840 251.450, 236.500 252 C 235.944 252.899, 237.257 253.433, 239.250 253.118 C 239.662 253.053, 240 253.525, 240 254.167 C 240 254.808, 240.280 255.054, 240.622 254.712 C 241.384 253.949, 251 258.711, 251 259.850 C 251 260.299, 251.621 260.667, 252.380 260.667 C 253.139 260.667, 255.888 261.667, 258.490 262.890 C 261.091 264.113, 263.467 264.866, 263.770 264.564 C 264.072 264.261, 262.021 259.173, 259.212 253.257 C 254.424 243.173, 249.234 231.658, 241.519 214 C 239.717 209.875, 236.901 203.575, 235.262 200 C 233.623 196.425, 231.675 191.700, 230.932 189.500 C 230.190 187.300, 229.233 185.011, 228.805 184.414 C 228.377 183.816, 227.343 181.390, 226.508 179.023 C 224.879 174.406, 225.899 171.363, 228.712 172.443 C 229.478 172.737, 229.858 172.579, 229.558 172.093 C 228.844 170.938, 231.842 169.800, 233.340 170.657 C 233.978 171.022, 234.146 170.932, 233.713 170.457 C 233.280 169.982, 236.205 167.964, 240.213 165.973 C 244.221 163.982, 251.011 160.462, 255.303 158.150 C 259.594 155.838, 263.485 154.181, 263.948 154.468 C 264.411 154.754, 265.040 154.339, 265.344 153.546 C 265.817 152.313, 281.841 144.096, 313 129.108 C 317.125 127.123, 320.650 125.162, 320.833 124.750 C 321.017 124.337, 321.943 124, 322.892 124 C 323.841 124, 325.491 123.328, 326.559 122.508 C 328.301 121.168, 326.726 121.023, 311.170 121.094 C 301.638 121.138, 293.750 121.022, 293.639 120.837 C 292.032 118.134, 287.570 107.416, 287.775 106.748 C 287.926 106.255, 287.621 106.116, 287.097 106.440 C 286.188 107.002, 284.387 103.322, 284.802 101.750 C 284.911 101.338, 284.548 101.113, 283.995 101.250 C 283.443 101.388, 282.088 100.099, 280.984 98.387 L 278.977 95.275 289.630 80.887 C 295.489 72.974, 302.061 64.362, 304.235 61.750 C 306.408 59.137, 307.899 57, 307.547 57 C 306.972 57, 301.673 59.392, 286.500 66.501 C 283.750 67.789, 277.026 70.702, 271.558 72.973 L 261.616 77.104 259.058 75.067 C 251.745 69.243, 237.778 60.473, 229.664 56.609 C 219.550 51.793, 204.107 46.570, 196.750 45.478 C 194.137 45.090, 192 44.416, 192 43.980 C 192 43.544, 191.098 43.423, 189.995 43.712 C 188.892 44, 187.322 43.683, 186.507 43.006 C 184.512 41.350, 182 42.458, 182 44.993 C 182 47.112, 185.140 48.886, 190 49.512 C 191.375 49.690, 194.750 50.111, 197.500 50.449 C 200.250 50.787, 202.628 51.434, 202.785 51.886 C 202.942 52.339, 204.246 52.484, 205.684 52.210 C 207.650 51.834, 208.098 52.032, 207.494 53.010 C 206.976 53.847, 207.085 54.066, 207.800 53.624 C 209.280 52.709, 214.134 53.975, 213.441 55.095 C 213.141 55.580, 213.594 55.709, 214.448 55.382 C 215.304 55.053, 216 55.309, 216 55.952 C 216 56.593, 216.420 56.858, 216.934 56.541 C 218.374 55.651, 226.080 59.061, 225.339 60.260 C 224.975 60.850, 225.168 61.014, 225.780 60.636 C 227.147 59.791, 236.090 64.045, 235.376 65.200 C 235.088 65.667, 235.222 65.949, 235.676 65.827 C 237.416 65.356, 241 67.192, 240.360 68.227 C 239.977 68.847, 240.154 69.023, 240.777 68.638 C 242.077 67.834, 249.618 72.774, 249.225 74.172 C 249.074 74.709, 249.321 74.920, 249.773 74.640 C 250.931 73.925, 253.491 75.671, 253.545 77.214 C 253.570 77.921, 254.075 78.407, 254.666 78.293 C 255.966 78.043, 264.055 84.809, 263.730 85.875 C 263.467 86.736, 269.562 93.097, 270.128 92.553 C 270.333 92.357, 271.364 93.351, 272.421 94.763 C 273.579 96.309, 273.777 96.995, 272.921 96.488 C 272.139 96.025, 273.451 97.562, 275.835 99.905 C 278.219 102.247, 279.914 104.419, 279.601 104.733 C 279.287 105.046, 279.812 105.943, 280.766 106.725 C 281.912 107.666, 281.992 107.924, 281 107.487 C 280.175 107.124, 280.464 107.653, 281.642 108.663 C 284.082 110.755, 287.381 116.637, 287.589 119.265 C 287.671 120.303, 286.857 121.241, 285.614 121.543 C 282.358 122.332, 205.658 121.546, 204.323 120.710 C 203.676 120.304, 202.629 118.291, 201.997 116.236 C 201.366 114.181, 200.237 111.150, 199.488 109.500 C 197.766 105.703, 196.784 102.912, 196.498 101 C 196.374 100.175, 194.650 94.550, 192.668 88.500 C 185.354 66.187, 181.286 52.159, 180.487 46.500 C 179.918 42.471, 175.864 25.433, 174.942 23.194 C 174.419 21.925, 173.540 21.167, 172.987 21.508 C 172.435 21.849, 171.599 21.090, 171.129 19.821 C 170.338 17.681, 170.236 17.767, 169.726 21.006 M 170.451 26.351 C 169.874 26.983, 169.682 28.625, 170.024 30 C 170.600 32.316, 170.687 32.243, 171.204 29 C 171.856 24.918, 171.833 24.837, 170.451 26.351 M 168.884 105.750 C 167.760 108.362, 165.916 113.200, 164.787 116.500 C 163.658 119.800, 162.395 122.950, 161.980 123.500 C 161.565 124.050, 159.991 127.650, 158.483 131.500 C 156.975 135.350, 154.836 140.525, 153.729 143 C 146.355 159.494, 142.858 168.962, 143.661 170.261 C 144.018 170.837, 143.848 171.024, 143.285 170.676 C 142.023 169.896, 137.731 180.720, 138.659 182.343 C 139.023 182.979, 138.941 183.155, 138.477 182.733 C 137.409 181.763, 134.784 187.842, 135.659 189.258 C 136.039 189.872, 135.829 190.013, 135.155 189.595 C 134.397 189.127, 134 189.761, 134 191.441 C 134 192.848, 133.502 194, 132.893 194 C 132.257 194, 132.067 194.732, 132.446 195.720 C 132.809 196.665, 132.774 197.108, 132.370 196.703 C 131.459 195.792, 128.798 201.863, 129.564 203.103 C 129.869 203.596, 129.615 204, 129 204 C 128.385 204, 128.160 204.450, 128.500 205 C 128.840 205.550, 128.566 206, 127.892 206 C 127.218 206, 126.963 206.296, 127.325 206.658 C 127.687 207.020, 127.440 207.970, 126.777 208.769 C 124.645 211.338, 119.015 225.215, 119.673 226.279 C 120.039 226.873, 119.820 227.007, 119.155 226.595 C 118.520 226.203, 118 226.332, 118 226.882 C 118 229.537, 121.047 228.594, 133.262 222.162 C 159.712 208.234, 170.325 203, 172.117 203 C 174.325 203, 184.788 207.733, 187.298 209.868 C 188.287 210.709, 189.723 211.489, 190.489 211.601 C 191.254 211.714, 195.845 214.039, 200.691 216.768 C 209.568 221.768, 223.577 229, 224.387 229 C 225.349 229, 224.213 224.297, 222.455 221 C 221.429 219.075, 220.700 217.106, 220.836 216.625 C 220.972 216.144, 220.443 215.019, 219.660 214.125 C 218.276 212.546, 216.471 207.893, 216.939 207.112 C 217.066 206.898, 216.786 206.448, 216.315 206.112 C 215.059 205.214, 213 200.197, 213 198.036 C 213 197.008, 212.525 196.008, 211.946 195.815 C 211.366 195.622, 210.781 194.797, 210.647 193.982 C 210.513 193.167, 209.879 191.547, 209.237 190.381 C 208.595 189.216, 208.352 187.982, 208.696 187.638 C 209.040 187.294, 208.573 186.185, 207.658 185.175 C 206.744 184.164, 206.297 183.037, 206.664 182.669 C 207.032 182.301, 206.808 182, 206.167 182 C 205.525 182, 205 180.875, 205 179.500 C 205 178.125, 204.662 177, 204.250 176.999 C 203.838 176.999, 203.429 175.775, 203.342 174.280 C 203.255 172.785, 202.693 171.398, 202.092 171.197 C 201.491 170.997, 201 170.164, 201 169.345 C 201 168.527, 200.344 167.201, 199.542 166.400 C 198.741 165.598, 198.339 164.280, 198.649 163.471 C 198.960 162.662, 198.730 162, 198.138 162 C 197.546 162, 197.350 161.252, 197.701 160.336 C 198.128 159.225, 197.955 158.910, 197.181 159.388 C 196.447 159.842, 196.223 159.583, 196.569 158.681 C 196.869 157.898, 196.436 156.578, 195.605 155.748 C 194.775 154.918, 194.337 153.996, 194.633 153.700 C 194.929 153.404, 194.505 151.663, 193.691 149.831 C 192.877 147.999, 191.386 144.399, 190.378 141.832 C 189.369 139.265, 188.201 137.376, 187.783 137.634 C 187.365 137.892, 187.269 137.464, 187.569 136.681 C 187.869 135.898, 187.490 134.633, 186.727 133.870 C 185.964 133.107, 185.546 131.861, 185.799 131.102 C 186.053 130.342, 185.802 130.004, 185.243 130.350 C 184.683 130.696, 184.246 130.421, 184.270 129.739 C 184.394 126.318, 183.917 124.933, 182.845 125.595 C 182.176 126.009, 181.961 125.873, 182.334 125.269 C 183.281 123.736, 180.994 117.886, 179.748 118.656 C 179.166 119.015, 178.982 118.838, 179.339 118.261 C 180.290 116.721, 173.853 101, 172.271 101 C 171.533 101, 170.009 103.138, 168.884 105.750 M 44.891 142.750 C 43.583 146.148, 41.096 158.824, 40.985 162.663 C 40.939 164.223, 40.670 170.368, 40.385 176.318 C 40.094 182.411, 40.278 187.653, 40.806 188.318 C 41.322 188.968, 41.647 191.075, 41.530 193 C 41.309 196.621, 43.700 211.706, 44.769 213.435 C 45.102 213.974, 45.479 215.394, 45.607 216.589 C 46.284 222.943, 58.327 247.778, 65.047 256.678 C 67.221 259.558, 69 262.180, 69 262.505 C 69 264.608, 53.174 286.568, 42.522 299.247 C 36.662 306.222, 37.152 306.675, 45.228 301.743 C 47.931 300.092, 50.501 299.169, 51.228 299.588 C 51.928 299.991, 52.163 299.949, 51.751 299.495 C 50.743 298.383, 60.765 292.737, 62.187 293.616 C 62.831 294.013, 63.032 293.861, 62.660 293.259 C 61.957 292.121, 64.670 290.678, 65.985 291.491 C 66.428 291.765, 67.066 291.269, 67.404 290.391 C 67.764 289.450, 68.652 289.036, 69.560 289.385 C 70.567 289.771, 70.855 289.574, 70.388 288.819 C 69.905 288.038, 70.231 287.875, 71.388 288.319 C 72.418 288.714, 72.857 288.577, 72.486 287.977 C 72.146 287.427, 73.247 286.701, 74.934 286.363 C 76.620 286.026, 78 285.410, 78 284.994 C 78 284.577, 80.014 283.574, 82.476 282.763 C 86.613 281.402, 87.076 281.427, 88.588 283.098 C 91.037 285.803, 105.108 295.333, 106.655 295.333 C 107.395 295.333, 108 295.673, 108 296.089 C 108 296.505, 109.575 297.365, 111.500 298 C 113.425 298.635, 115 299.597, 115 300.137 C 115 300.676, 115.450 300.840, 116 300.500 C 116.550 300.160, 117 300.385, 117 301 C 117 301.615, 117.419 301.859, 117.931 301.543 C 118.443 301.226, 119.149 301.432, 119.500 302 C 119.851 302.568, 120.557 302.774, 121.069 302.457 C 121.581 302.141, 122 302.359, 122 302.941 C 122 303.523, 123.125 304, 124.500 304 C 125.875 304, 127 304.436, 127 304.969 C 127 305.501, 127.675 305.678, 128.500 305.362 C 129.326 305.045, 130 305.332, 130 306 C 130 306.668, 130.674 306.955, 131.500 306.638 C 132.325 306.322, 133 306.485, 133 307 C 133 307.515, 133.675 307.678, 134.500 307.362 C 135.325 307.045, 136 307.314, 136 307.960 C 136 308.680, 136.775 308.889, 138 308.500 C 139.198 308.120, 140 308.320, 140 309 C 140 309.680, 140.802 309.880, 142 309.500 C 143.198 309.120, 144 309.320, 144 310 C 144 310.678, 144.801 310.880, 145.991 310.503 C 147.086 310.155, 148.548 310.221, 149.240 310.649 C 149.933 311.076, 151.644 311.306, 153.043 311.159 C 157.309 310.712, 161.305 312.725, 160.705 315.019 C 160.420 316.110, 160.526 316.793, 160.941 316.537 C 161.879 315.957, 167.762 337.861, 170.040 350.416 C 170.995 355.679, 172.615 358.348, 173.381 355.917 C 173.942 354.133, 183.091 318.255, 183.726 315.348 C 184.068 313.780, 185.187 313.033, 187.848 312.595 C 189.857 312.265, 192.625 311.797, 194 311.557 C 195.375 311.316, 198.519 310.835, 200.986 310.487 C 203.453 310.140, 205.703 309.550, 205.986 309.178 C 206.269 308.805, 207.175 308.417, 208 308.316 C 211.535 307.883, 215.496 306.827, 215.979 306.189 C 216.265 305.810, 217.400 305.346, 218.500 305.158 C 219.600 304.971, 220.651 304.405, 220.835 303.902 C 221.020 303.399, 221.551 303.223, 222.017 303.510 C 223.091 304.174, 230 300.924, 230 299.756 C 230 299.275, 230.378 299.116, 230.840 299.401 C 231.822 300.008, 244.077 292.555, 252 286.533 C 255.025 284.234, 258.029 282.043, 258.675 281.664 C 259.949 280.916, 264.694 282.707, 266.821 284.738 C 268.068 285.928, 269.543 286.388, 271.250 286.118 C 271.663 286.053, 272 286.450, 272 287 C 272 287.550, 272.337 287.916, 272.750 287.814 C 273.995 287.506, 281 290.836, 281 291.736 C 281 292.197, 281.936 292.645, 283.080 292.731 C 284.224 292.817, 285.699 293.335, 286.357 293.881 C 288.318 295.509, 307 304.945, 307 304.308 C 307 303.985, 304.413 300.539, 301.250 296.650 C 298.087 292.761, 294.825 288.616, 294 287.438 C 293.175 286.260, 289.700 281.566, 286.277 277.008 C 282.855 272.450, 280.340 268.221, 280.688 267.610 C 281.036 267, 280.949 266.837, 280.496 267.248 C 280.042 267.660, 278.917 266.760, 277.996 265.248 C 276.209 262.317, 276.670 260.588, 280.230 256.854 C 281.982 255.017, 288.056 244.746, 288.251 243.291 C 288.309 242.856, 288.956 241.901, 289.688 241.169 C 290.420 240.438, 290.763 239.425, 290.450 238.919 C 290.138 238.414, 290.328 238, 290.874 238 C 291.993 238, 293.517 234.153, 293.152 232.250 C 293.020 231.563, 293.409 231, 294.015 231 C 294.622 231, 294.840 230.550, 294.500 230 C 294.160 229.450, 294.385 229, 295 229 C 295.615 229, 295.838 228.547, 295.495 227.992 C 295.153 227.438, 295.591 226.266, 296.470 225.387 C 297.349 224.508, 297.817 223, 297.511 222.036 C 297.205 221.071, 297.594 219.752, 298.374 219.104 C 299.155 218.457, 299.563 217.043, 299.280 215.963 C 298.998 214.883, 299.230 214, 299.795 214 C 300.361 214, 301.155 212.088, 301.560 209.750 C 301.964 207.412, 302.459 204.600, 302.658 203.500 C 304.645 192.548, 305.125 185.294, 304.740 172 C 304.237 154.645, 302.020 142.616, 299.028 141.015 C 296.251 139.529, 296.045 142.203, 297.824 156.647 C 298.694 163.716, 299.366 172.200, 299.316 175.500 C 299.204 182.980, 298.393 195.500, 298.020 195.500 C 297.668 195.500, 297.008 200.786, 296.991 203.750 C 296.984 204.988, 296.622 206, 296.187 206 C 295.752 206, 295.351 207.588, 295.296 209.529 C 295.241 211.470, 294.778 213.608, 294.267 214.279 C 293.756 214.951, 292.303 218.425, 291.038 222 C 286.985 233.459, 274.332 256.441, 270.913 258.554 C 269.389 259.496, 269.890 263.190, 271.750 264.714 C 272.895 265.652, 272.981 265.924, 272 265.500 C 271.175 265.143, 271.374 265.560, 272.441 266.426 C 273.509 267.292, 274.071 268, 273.691 268 C 273.311 268, 273.916 268.916, 275.036 270.036 C 276.157 271.157, 276.805 272.507, 276.477 273.036 C 276.150 273.566, 276.385 274, 277 274 C 277.615 274, 277.840 274.450, 277.500 275 C 277.160 275.550, 277.314 276, 277.843 276 C 279.622 276, 282.965 282.337, 281.877 283.648 C 281.108 284.575, 280.011 284.359, 277.187 282.724 C 275.159 281.550, 273.275 280.299, 273 279.944 C 271.305 277.757, 259.296 273.708, 257.579 274.744 C 255.167 276.200, 243.420 285.451, 242.341 286.744 C 241.704 287.508, 240.911 288.094, 240.581 288.046 C 239.292 287.860, 234 291.108, 234 292.085 C 234 292.653, 233.608 292.876, 233.129 292.580 C 232.650 292.284, 231.231 292.932, 229.976 294.021 C 227.835 295.878, 226.533 296.400, 224.750 296.118 C 224.338 296.053, 224 296.498, 224 297.107 C 224 297.716, 223.325 297.955, 222.500 297.638 C 221.675 297.322, 221 297.525, 221 298.090 C 221 298.656, 220.581 298.859, 220.069 298.543 C 219.557 298.226, 218.851 298.432, 218.500 299 C 218.149 299.568, 217.479 299.796, 217.012 299.507 C 216.544 299.218, 215.453 299.689, 214.588 300.555 C 213.723 301.420, 212.562 301.847, 212.008 301.505 C 211.453 301.162, 211 301.411, 211 302.058 C 211 302.741, 210.162 303.014, 209 302.710 C 207.900 302.423, 207 302.563, 207 303.023 C 207 304.109, 196.306 306.332, 194.471 305.627 C 193.697 305.330, 192.812 305.495, 192.504 305.993 C 192.196 306.492, 189.636 306.626, 186.816 306.292 C 183.271 305.872, 181.893 306.017, 182.353 306.762 C 182.719 307.354, 182.341 308.517, 181.512 309.345 C 180.684 310.174, 180.260 311.514, 180.571 312.325 C 180.882 313.135, 180.698 314.069, 180.162 314.400 C 179.626 314.731, 179.441 315.972, 179.751 317.157 C 180.112 318.538, 179.933 319.076, 179.251 318.655 C 178.598 318.251, 178.369 318.696, 178.660 319.806 C 179.200 321.875, 174.329 342.020, 172.947 343.433 C 172.444 343.947, 171.760 344.094, 171.427 343.760 C 170.226 342.559, 163.898 315.448, 164.305 313.250 C 164.535 312.012, 164.335 311, 163.861 311 C 163.388 311, 163 310.325, 163 309.500 C 163 308.675, 162.325 308, 161.500 308 C 160.675 308, 160 307.491, 160 306.869 C 160 306.141, 158.786 305.935, 156.589 306.292 C 154.713 306.596, 152.943 306.610, 152.655 306.322 C 152.367 306.034, 150.152 305.674, 147.732 305.522 C 142.201 305.173, 129 301.067, 129 299.694 C 129 299.129, 128.716 298.951, 128.369 299.298 C 128.021 299.645, 126.784 299.400, 125.619 298.752 C 124.453 298.105, 123.162 297.671, 122.750 297.788 C 122.338 297.904, 122 297.550, 122 297 C 122 296.450, 120.930 296, 119.622 296 C 118.315 296, 116.685 295.325, 116 294.500 C 115.315 293.675, 114.341 293, 113.835 293 C 113.329 293, 112.372 292.541, 111.708 291.981 C 111.044 291.420, 106.900 288.578, 102.500 285.664 C 98.100 282.750, 92.412 278.883, 89.861 277.069 C 85.503 273.971, 85.002 273.844, 81.586 274.972 C 79.586 275.632, 76.723 277.197, 75.225 278.449 C 71.482 281.578, 64.136 285.202, 62.983 284.490 C 61.926 283.836, 66.734 276, 68.192 276 C 68.701 276, 68.798 275.482, 68.406 274.848 C 68.015 274.215, 68.326 273.202, 69.097 272.598 C 69.869 271.994, 71.280 269.813, 72.234 267.750 C 73.187 265.688, 74.425 264, 74.984 264 C 77.125 264, 75.808 260.854, 70.668 253.689 C 64.509 245.106, 57.250 231.368, 53.921 222 C 52.651 218.425, 51.302 215.275, 50.924 215 C 50.546 214.725, 50.223 213.375, 50.206 212 C 50.189 210.625, 49.461 205.504, 48.587 200.619 C 46.600 189.502, 46.549 168.182, 48.475 153.715 C 49.264 147.783, 49.657 142.270, 49.348 141.465 C 48.437 139.091, 46.033 139.785, 44.891 142.750" stroke="none" fill="#fbd809" fill-rule="evenodd"/></svg>